<?xml version="1.0" standalone="no"?>
<!DOCTYPE svg PUBLIC "-//W3C//DTD SVG 20010904//EN"
 "http://www.w3.org/TR/2001/REC-SVG-20010904/DTD/svg10.dtd">
<svg version="1.0" xmlns="http://www.w3.org/2000/svg"
 width="887.000000pt" height="887.000000pt" viewBox="0 0 887.000000 887.000000"
 preserveAspectRatio="xMidYMid meet">
<metadata>
Created by potrace 1.11, written by Peter Selinger 2001-2013
</metadata>
<g transform="translate(0.000000,887.000000) scale(0.100000,-0.100000)"
fill="#000000" stroke="none">
<path d="M4665 7843 c-82 -10 -163 -26 -190 -37 -16 -8 -70 -29 -119 -47 -183
-68 -365 -219 -508 -418 -60 -83 -98 -149 -165 -280 -29 -57 -54 -106 -57
-108 -2 -2 -35 19 -72 47 -38 29 -90 63 -116 76 -54 27 -50 30 -86 -61 -11
-28 -23 -57 -26 -67 -6 -12 7 -23 56 -50 71 -37 186 -148 243 -234 99 -148
168 -374 199 -649 l6 -50 -20 25 c-11 14 -20 29 -20 33 0 17 -107 147 -194
237 -79 81 -140 130 -295 233 -22 14 -160 75 -211 92 -3 1 -18 7 -35 14 -83
34 -180 46 -380 46 -211 0 -311 -14 -400 -56 -22 -10 -76 -32 -120 -49 -68
-25 -280 -140 -295 -160 -3 -3 -32 -26 -65 -50 -33 -24 -82 -65 -110 -91 -27
-26 -62 -58 -76 -70 -30 -27 -159 -175 -159 -183 0 -3 -20 -34 -46 -70 -57
-83 -133 -243 -172 -367 -134 -419 -120 -928 44 -1567 46 -180 147 -508 185
-597 6 -16 14 -38 16 -48 1 -10 9 -28 17 -40 8 -12 17 -33 21 -47 12 -45 159
-430 235 -615 49 -119 116 -257 150 -305 9 -14 19 -32 23 -40 8 -21 176 -230
185 -230 4 0 33 -24 66 -54 32 -30 93 -70 135 -91 42 -20 84 -41 94 -46 37
-20 146 -39 252 -45 82 -5 153 -1 280 15 94 12 179 26 190 31 27 12 197 30
282 30 75 0 185 -16 211 -30 20 -10 238 -90 247 -90 3 0 25 -9 48 -19 110 -50
382 -80 574 -63 124 11 301 45 313 60 3 4 39 18 80 32 81 27 262 116 322 159
20 14 65 46 100 70 135 95 434 399 508 515 8 14 36 55 61 93 25 37 72 111 103
163 32 52 60 97 62 99 4 4 178 -151 314 -279 20 -19 50 -47 66 -61 16 -14 137
-123 269 -243 303 -275 304 -276 412 -276 97 0 127 12 191 73 l42 41 0 146 0
146 -67 65 c-38 36 -167 155 -288 264 -121 109 -222 201 -225 205 -5 6 -242
220 -392 354 -48 43 -88 86 -88 95 0 9 20 49 45 88 85 137 162 311 210 473 29
96 49 275 49 430 0 243 -33 418 -119 625 -20 50 -54 151 -75 225 -21 74 -49
164 -63 200 -54 138 -69 175 -77 185 -4 6 -22 37 -39 71 -50 100 -169 259
-281 377 -158 167 -369 305 -536 352 -33 9 -66 19 -74 22 -55 20 -291 21 -326
1 -5 -3 -27 -9 -49 -13 -99 -17 -341 -127 -440 -199 -16 -12 -64 -42 -105 -66
-41 -24 -78 -48 -81 -53 -12 -18 -302 -177 -322 -177 -1 0 -3 12 -4 28 -16
225 -89 526 -166 678 l-35 71 46 -24 c26 -13 92 -38 147 -54 55 -17 108 -35
117 -40 36 -19 208 -39 333 -39 136 0 328 23 333 40 2 6 10 10 18 10 37 0 214
66 311 117 103 54 253 154 297 199 12 12 45 42 74 67 92 78 282 299 328 382 6
11 34 58 63 104 44 71 91 158 91 167 0 2 -17 6 -37 10 -21 4 -40 10 -43 13 -8
11 -149 42 -205 46 -27 2 -75 8 -105 15 -30 6 -69 11 -87 11 -19 -1 -40 7 -50
17 -18 19 -143 41 -353 62 -90 9 -331 11 -395 3z m550 -2052 c279 -70 462
-166 649 -342 127 -120 261 -308 309 -434 10 -27 25 -63 32 -80 29 -65 55
-166 76 -290 53 -323 -13 -697 -172 -966 -202 -342 -533 -579 -929 -665 -109
-24 -148 -27 -300 -28 -155 0 -190 3 -305 28 -203 43 -425 142 -563 250 -60
47 -181 162 -232 221 -128 147 -223 340 -295 600 -36 127 -40 461 -9 609 43
199 130 403 236 551 67 93 230 255 256 255 12 0 28 12 37 28 35 58 248 177
415 230 82 26 145 41 280 66 14 3 108 3 210 1 166 -3 198 -7 305 -34z"/>
<path d="M4218 5354 c-149 -29 -308 -119 -407 -231 -63 -69 -128 -196 -147
-284 -46 -217 36 -473 225 -699 69 -84 126 -137 346 -328 227 -197 399 -364
528 -514 55 -65 106 -118 113 -118 6 0 47 41 90 92 43 51 110 126 148 167 72
76 356 332 526 476 195 164 302 290 380 450 87 179 110 333 71 484 -72 277
-300 467 -611 511 -211 29 -436 -81 -548 -269 -21 -36 -43 -66 -49 -68 -5 -2
-28 26 -49 63 -126 217 -361 319 -616 268z"/>
</g>
</svg>
